<?xml version="1.0" encoding="utf-8"?>
<!-- Generator: Adobe Illustrator 23.0.1, SVG Export Plug-In . SVG Version: 6.00 Build 0)  -->
<svg version="1.1" id="Capa_1" xmlns="http://www.w3.org/2000/svg" xmlns:xlink="http://www.w3.org/1999/xlink" x="0px" y="0px"
	 viewBox="0 0 124 124" style="enable-background:new 0 0 124 124;" xml:space="preserve">
<style type="text/css">
	.st0{fill:#3A1DB9;}
	.st1{fill:#FFFFFF;}
</style>
<circle class="st0" cx="62" cy="62" r="62"/>
<g>
	<path class="st1" d="M85.8,35.4H38.2c-3.1,0-5.7,2.6-5.7,5.7c0,3.1,2.6,5.7,5.7,5.7h47.7c3.1,0,5.7-2.6,5.7-5.7
		C91.5,37.9,89,35.4,85.8,35.4z"/>
	<path class="st1" d="M85.8,56.3H38.2c-3.1,0-5.7,2.6-5.7,5.7c0,3.1,2.6,5.7,5.7,5.7h47.7c3.1,0,5.7-2.6,5.7-5.7
		C91.5,58.9,89,56.3,85.8,56.3z"/>
	<path class="st1" d="M85.8,77.3H38.2c-3.1,0-5.7,2.6-5.7,5.7c0,3.1,2.6,5.7,5.7,5.7h47.7c3.1,0,5.7-2.6,5.7-5.7
		C91.5,79.8,89,77.3,85.8,77.3z"/>
</g>
</svg>
